<svg width="84" height="84" viewBox="0 0 84 84" fill="none" xmlns="http://www.w3.org/2000/svg">
<path d="M82.742 52.1603C77.1319 74.6603 54.3407 88.3535 31.8357 82.7426C9.33996 77.133 -4.35469 54.343 1.2581 31.8443C6.86564 9.34174 29.6568 -4.35274 52.1552 1.25683C74.6589 6.8664 88.3522 29.659 82.742 52.1603V52.1603Z" fill="#F7931A"/>
<path d="M60.5192 36.0165C61.3553 30.4279 57.0998 27.4237 51.2809 25.4195L53.1685 17.8491L48.5598 16.7006L46.7222 24.0715C45.5106 23.7697 44.2662 23.4849 43.0297 23.2027L44.8805 15.7832L40.2745 14.6348L38.3857 22.2026C37.3828 21.9742 36.3984 21.7485 35.4428 21.5109L35.448 21.4873L29.0923 19.9005L27.8663 24.8223C27.8663 24.8223 31.2857 25.6058 31.2135 25.6544C33.0801 26.1203 33.4174 27.3554 33.3609 28.3345L31.2109 36.9589C31.3395 36.9917 31.5062 37.0389 31.69 37.1124C31.5364 37.0744 31.3723 37.0323 31.203 36.9917L28.1892 49.0731C27.9608 49.6401 27.382 50.4906 26.0772 50.1677C26.1231 50.2347 22.7274 49.3317 22.7274 49.3317L20.4395 54.6066L26.4368 56.1015C27.5526 56.381 28.646 56.6737 29.7223 56.9493L27.8151 64.6064L32.4185 65.7548L34.3074 58.1791C35.5648 58.5204 36.7856 58.8354 37.9801 59.132L36.0978 66.6723L40.7064 67.8207L42.6137 60.1781C50.4723 61.6651 56.3818 61.0653 58.8692 53.9582C60.8736 48.2357 58.7694 44.9349 54.6347 42.7824C57.6458 42.0881 59.9141 40.1075 60.5192 36.0165V36.0165ZM49.9893 50.7807C48.5651 56.5031 38.9291 53.4096 35.805 52.6339L38.3358 42.4897C41.4599 43.2693 51.4778 44.8128 49.9893 50.7807ZM51.4148 35.9338C50.1153 41.1391 42.0951 38.4945 39.4935 37.8461L41.788 28.6456C44.3896 29.294 52.7681 30.504 51.4148 35.9338Z" fill="white"/>
</svg>
