<svg width="84" height="84" viewBox="0 0 84 84" fill="none" xmlns="http://www.w3.org/2000/svg">
<circle cx="42" cy="42" r="42" fill="white"/>
<g clip-path="url(#clip0_1118_149)">
<path d="M55.0896 33.397C54.1701 32.8716 52.9881 32.8716 51.9373 33.397L44.5821 37.7313L39.591 40.4895L32.3672 44.8239C31.4478 45.3492 30.2657 45.3492 29.2149 44.8239L23.5672 41.409C22.6478 40.8836 21.991 39.8328 21.991 38.6507V32.0836C21.991 31.0328 22.5164 29.9821 23.5672 29.3254L29.2149 26.0418C30.1343 25.5164 31.3164 25.5164 32.3672 26.0418L38.0149 29.4567C38.9343 29.9821 39.591 31.0328 39.591 32.2149V36.5492L44.5821 33.6597V29.194C44.5821 28.1433 44.0567 27.0925 43.006 26.4358L32.4985 20.2627C31.5791 19.7373 30.397 19.7373 29.3463 20.2627L18.5761 26.5672C17.5254 27.0925 17 28.1433 17 29.194V41.5403C17 42.591 17.5254 43.6418 18.5761 44.2985L29.2149 50.4716C30.1343 50.997 31.3164 50.997 32.3672 50.4716L39.591 46.2687L44.5821 43.3791L51.806 39.1761C52.7254 38.6507 53.9075 38.6507 54.9582 39.1761L60.606 42.4597C61.5254 42.9851 62.1821 44.0358 62.1821 45.2179V51.7851C62.1821 52.8358 61.6567 53.8866 60.606 54.5433L55.0896 57.8269C54.1701 58.3522 52.9881 58.3522 51.9373 57.8269L46.2896 54.5433C45.3701 54.0179 44.7134 52.9672 44.7134 51.7851V47.5821L39.7224 50.4716V54.806C39.7224 55.8567 40.2478 56.9075 41.2985 57.5642L51.9373 63.7373C52.8567 64.2627 54.0388 64.2627 55.0896 63.7373L65.7284 57.5642C66.6478 57.0388 67.3045 55.9881 67.3045 54.806V42.3284C67.3045 41.2776 66.7791 40.2269 65.7284 39.5701L55.0896 33.397Z" fill="#8247E5"/>
</g>
<defs>
<clipPath id="clip0_1118_149">
<rect width="50.4358" height="44" fill="white" transform="translate(17 20)"/>
</clipPath>
</defs>
</svg>
