<svg width="14" height="14" viewBox="0 0 14 14" fill="none" xmlns="http://www.w3.org/2000/svg">
<path d="M4.67619 0C2.0936 0 0 2.09196 0 4.67252V10.4476C0 10.7842 0.273078 11.0571 0.609938 11.0571C0.946797 11.0571 1.21988 10.7842 1.21988 10.4476V4.67252C1.21988 2.76515 2.76732 1.21892 4.67619 1.21892H10.3794C10.7163 1.21892 10.9893 0.946053 10.9893 0.609459C10.9893 0.272864 10.7163 0 10.3794 0H4.67619Z" fill="currentColor"/>
<path fill-rule="evenodd" clip-rule="evenodd" d="M12.3228 2.87929C9.68711 2.58495 6.98454 2.58495 4.34884 2.87929C3.59798 2.96315 2.9946 3.55359 2.9061 4.30967C2.5935 6.9803 2.5935 9.67823 2.9061 12.3489C2.9946 13.1049 3.59798 13.6954 4.34884 13.7792C6.98454 14.0736 9.68711 14.0736 12.3228 13.7792C13.0737 13.6954 13.677 13.1049 13.7656 12.3489C14.0781 9.67824 14.0781 6.9803 13.7656 4.30967C13.677 3.55359 13.0737 2.96315 12.3228 2.87929ZM4.48433 4.09067C7.02999 3.80638 9.64167 3.80638 12.1873 4.09067C12.3803 4.11222 12.5321 4.26476 12.5539 4.45126C12.8555 7.02782 12.8555 9.63071 12.5539 12.2073C12.5321 12.3938 12.3803 12.5463 12.1873 12.5679C9.64167 12.8522 7.02999 12.8522 4.48433 12.5679C4.29131 12.5463 4.13955 12.3938 4.11772 12.2073C3.81613 9.63071 3.81613 7.02782 4.11772 4.45126C4.13955 4.26476 4.29131 4.11222 4.48433 4.09067Z" fill="currentColor"/>
</svg>
