<svg width="18" height="18" viewBox="0 0 18 18" fill="none" xmlns="http://www.w3.org/2000/svg">
<path fill-rule="evenodd" clip-rule="evenodd" d="M9 1.54286C4.88153 1.54286 1.54286 4.88153 1.54286 9C1.54286 13.1185 4.88153 16.4571 9 16.4571C13.1185 16.4571 16.4571 13.1185 16.4571 9C16.4571 4.88153 13.1185 1.54286 9 1.54286ZM0 9C0 4.02944 4.02944 0 9 0C13.9706 0 18 4.02944 18 9C18 13.9706 13.9706 18 9 18C4.02944 18 0 13.9706 0 9Z" fill="currentColor"/>
<path fill-rule="evenodd" clip-rule="evenodd" d="M7.81693 6.23186C6.85669 7.02184 6.21517 8.13297 6.01115 9.35955L5.5607 12.0676C5.32678 13.4739 6.96194 14.4179 8.06286 13.5122L10.1829 11.7681C11.1431 10.9781 11.7846 9.86699 11.9887 8.64041L12.4391 5.93235C12.673 4.52607 11.0379 3.58201 9.93694 4.48773L7.81693 6.23186ZM9 7.45714C8.1479 7.45714 7.45714 8.1479 7.45714 9C7.45714 9.8521 8.1479 10.5429 9 10.5429C9.8521 10.5429 10.5429 9.8521 10.5429 9C10.5429 8.1479 9.8521 7.45714 9 7.45714Z" fill="currentColor"/>
</svg>
