<svg width="9" height="13" viewBox="0 0 9 13" fill="none" xmlns="http://www.w3.org/2000/svg">
<path d="M6.47915 4.91692C6.47915 4.29028 7.3126 4.12419 7.53371 4.71051C8.06859 6.1288 8.45831 7.39757 8.45831 8.08352C8.45831 10.2697 6.68611 12.0419 4.49998 12.0419C2.31385 12.0419 0.541647 10.2697 0.541647 8.08352C0.541647 7.34655 0.99149 5.93688 1.58788 4.3918C2.36044 2.39031 2.74672 1.38957 3.22355 1.33567C3.37613 1.31842 3.54258 1.34943 3.67871 1.42046C4.10415 1.64245 4.10415 2.73394 4.10415 4.91692C4.10415 5.57275 4.63581 6.10442 5.29165 6.10442C5.94748 6.10442 6.47915 5.57275 6.47915 4.91692Z" stroke="url(#paint0_linear_1144_3019)"/>
<path d="M3.70835 12.0416L3.50031 11.5215C3.13962 10.6198 3.29166 9.59376 3.89837 8.83538V8.83538C4.20682 8.44982 4.79323 8.44982 5.10167 8.83538V8.83538C5.70838 9.59376 5.86043 10.6198 5.49973 11.5215L5.29169 12.0416" stroke="url(#paint1_linear_1144_3019)"/>
<defs>
<linearGradient id="paint0_linear_1144_3019" x1="4.49998" y1="1.33099" x2="4.49998" y2="12.0419" gradientUnits="userSpaceOnUse">
<stop stop-color="#CE88DA"/>
<stop offset="0.0001" stop-color="#D47B98"/>
<stop offset="1" stop-color="#DE6A6A"/>
</linearGradient>
<linearGradient id="paint1_linear_1144_3019" x1="4.50002" y1="8.08331" x2="4.50002" y2="12.0416" gradientUnits="userSpaceOnUse">
<stop stop-color="#CE88DA"/>
<stop offset="0.0001" stop-color="#D47B98"/>
<stop offset="1" stop-color="#DE6A6A"/>
</linearGradient>
</defs>
</svg>
