<svg width="19" height="22" viewBox="0 0 19 22" fill="none" xmlns="http://www.w3.org/2000/svg">
<path d="M17.7968 5.46677L13.0985 0.768406L11.6148 2.2521L14.523 5.16032L1.16976 5.16032L1.16976 7.2578L14.5234 7.25736L11.6152 10.1656L13.0989 11.6493L17.7973 6.95091C17.9938 6.7544 18.1046 6.48725 18.1046 6.20906C18.1042 5.93042 17.9938 5.66371 17.7973 5.46721L17.7968 5.46677Z" fill="currentColor"/>
<path d="M17.1144 15.0517L3.76117 15.0517L6.66939 12.1434L5.1857 10.6597L0.487333 15.3581C0.290831 15.5546 0.179996 15.8218 0.179996 16.1C0.179996 16.3782 0.290832 16.6453 0.487333 16.8418L5.1857 21.5402L6.66939 20.0565L3.76117 17.1483L17.1144 17.1483L17.1144 15.0517Z" fill="currentColor"/>
</svg>
