<svg width="9" height="13" viewBox="0 0 9 13" fill="none" xmlns="http://www.w3.org/2000/svg">
<path d="M5.19084 7.79282L7.44955 5.53412C7.6928 5.29087 8.08719 5.29087 8.33044 5.53412C8.57369 5.77737 8.57369 6.17175 8.33044 6.415L5.00841 9.73703C4.76516 9.98028 4.37077 9.98028 4.12752 9.73703L0.805485 6.415C0.562234 6.17175 0.562234 5.77737 0.805485 5.53412C1.04873 5.29087 1.44312 5.29087 1.68637 5.53412L3.94508 7.79282L3.94508 0.622925C3.94508 0.278917 4.22395 4.33922e-05 4.56796 4.33922e-05C4.91197 4.33922e-05 5.19084 0.278917 5.19084 0.622925L5.19084 7.79282Z" fill="currentColor"/>
<path fill-rule="evenodd" clip-rule="evenodd" d="M0 11.6229C0 11.3467 0.191878 11.1229 0.428571 11.1229H8.57143C8.80812 11.1229 9 11.3467 9 11.6229C9 11.899 8.80812 12.1229 8.57143 12.1229H0.428571C0.191878 12.1229 0 11.899 0 11.6229Z" fill="currentColor"/>
</svg>
