<svg width="19" height="19" viewBox="0 0 19 19" fill="none" xmlns="http://www.w3.org/2000/svg">
<path d="M17.4677 8.86667V4.43333H14.4032V0H3.06452C2.25187 0 1.47261 0.333631 0.897465 0.927381C0.322869 1.52113 0 2.32693 0 3.16667V15.8333C0 16.6731 0.322869 17.4789 0.897465 18.0726C1.47206 18.6664 2.25187 19 3.06452 19H17.4677V14.5667H19V8.86667H17.4677ZM17.1613 12.6667H13.1774C12.8491 12.6667 12.5454 12.4857 12.3812 12.1917C12.217 11.8976 12.217 11.5351 12.3812 11.2417C12.5454 10.9476 12.8491 10.7667 13.1774 10.7667H17.1613V12.6667ZM3.06452 1.9H12.5645V4.43333H3.06452C2.62673 4.43333 2.22177 4.19187 2.00288 3.8C1.78399 3.40812 1.78399 2.92521 2.00288 2.53333C2.22177 2.14146 2.62673 1.9 3.06452 1.9ZM3.06452 17.1C2.73946 17.1 2.42753 16.9665 2.1977 16.729C1.96786 16.4915 1.83871 16.1692 1.83871 15.8333V6.06756C2.22506 6.24286 2.6426 6.3339 3.06452 6.33333H15.629V8.86667H13.1774C12.1924 8.86667 11.2818 9.41009 10.7887 10.2917C10.2962 11.1732 10.2962 12.2595 10.7887 13.1417C11.2812 14.0232 12.1918 14.5667 13.1774 14.5667H15.629V17.1H3.06452Z" fill="currentColor"/>
</svg>
