<svg width="72" height="53" viewBox="0 0 72 53" fill="none" xmlns="http://www.w3.org/2000/svg">
<path d="M40.6924 0C39.4203 0 38.3891 1.03545 38.3891 2.31273V7.32364C38.3891 8.60093 37.3579 9.63637 36.0858 9.63637H31.0952C29.8231 9.63637 28.7918 8.60093 28.7918 7.32364V2.31273C28.7918 1.03545 27.7606 0 26.4885 0H11.9006C10.6285 0 9.59727 1.03545 9.59727 2.31273V7.32364C9.59727 8.60093 8.56603 9.63637 7.29393 9.63637H2.30335C1.03124 9.63637 0 10.6718 0 11.9491V48.1819H9.59727V11.9491C9.59727 10.6718 10.6285 9.63637 11.9006 9.63637H26.4885C27.7606 9.63637 28.7918 10.6718 28.7918 11.9491V48.1819H38.3891V11.9491C38.3891 10.6718 39.4203 9.63637 40.6924 9.63637H55.2803C56.5524 9.63637 57.5836 10.6718 57.5836 11.9491V48.1819H67.1809V11.9491C67.1809 10.6718 66.1497 9.63637 64.8776 9.63637H59.887C58.6149 9.63637 57.5836 8.60093 57.5836 7.32364V2.31273C57.5836 1.03545 56.5524 0 55.2803 0H40.6924Z" fill="black"/>
<path d="M45.4912 4.81818C44.2191 4.81818 43.1878 5.85363 43.1878 7.13091V12.1418C43.1878 13.4191 42.1566 14.4546 40.8845 14.4546H35.8939C34.6218 14.4546 33.5905 13.4191 33.5905 12.1418V7.13091C33.5905 5.85363 32.5593 4.81818 31.2872 4.81818H16.6993C15.4272 4.81818 14.396 5.85363 14.396 7.13091V12.1418C14.396 13.4191 13.3648 14.4546 12.0927 14.4546H7.10207C5.82997 14.4546 4.79873 15.49 4.79873 16.7673V53H14.396V16.7673C14.396 15.49 15.4272 14.4546 16.6993 14.4546H31.2872C32.5593 14.4546 33.5905 15.49 33.5905 16.7673V53H43.1878V16.7673C43.1878 15.49 44.2191 14.4546 45.4912 14.4546H60.079C61.3511 14.4546 62.3824 15.49 62.3824 16.7673V53H71.9796V16.7673C71.9796 15.49 70.9484 14.4546 69.6763 14.4546H64.6857C63.4136 14.4546 62.3824 13.4191 62.3824 12.1418V7.13091C62.3824 5.85363 61.3511 4.81818 60.079 4.81818H45.4912Z" fill="white"/>
<path fill-rule="evenodd" clip-rule="evenodd" d="M45.4912 5.39636C44.5371 5.39636 43.7637 6.17295 43.7637 7.13091V12.1418C43.7637 13.7384 42.4746 15.0327 40.8845 15.0327H35.8939C34.3038 15.0327 33.0147 13.7384 33.0147 12.1418V7.13091C33.0147 6.17295 32.2413 5.39636 31.2872 5.39636H16.6993C15.7453 5.39636 14.9718 6.17295 14.9718 7.13091V12.1418C14.9718 13.7384 13.6828 15.0327 12.0927 15.0327H7.10207C6.14799 15.0327 5.37456 15.8093 5.37456 16.7673V52.4219H13.8202V16.7673C13.8202 15.1707 15.1092 13.8764 16.6993 13.8764H31.2872C32.8773 13.8764 34.1664 15.1707 34.1664 16.7673V52.4219H42.612V16.7673C42.612 15.1707 43.901 13.8764 45.4912 13.8764H60.079C61.6691 13.8764 62.9582 15.1707 62.9582 16.7673V52.4219H71.4038V16.7673C71.4038 15.8093 70.6304 15.0327 69.6763 15.0327H64.6857C63.0956 15.0327 61.8065 13.7384 61.8065 12.1418V7.13091C61.8065 6.17295 61.0331 5.39636 60.079 5.39636H45.4912ZM33.5905 53V16.7673C33.5905 15.49 32.5593 14.4546 31.2872 14.4546H16.6993C15.4272 14.4546 14.396 15.49 14.396 16.7673V53H4.79873V16.7673C4.79873 15.49 5.82997 14.4546 7.10207 14.4546H12.0927C13.3648 14.4546 14.396 13.4191 14.396 12.1418V7.13091C14.396 5.85363 15.4272 4.81818 16.6993 4.81818H31.2872C32.5593 4.81818 33.5905 5.85363 33.5905 7.13091V12.1418C33.5905 13.4191 34.6218 14.4546 35.8939 14.4546H40.8845C42.1566 14.4546 43.1878 13.4191 43.1878 12.1418V7.13091C43.1878 5.85363 44.2191 4.81818 45.4912 4.81818H60.079C61.3511 4.81818 62.3824 5.85363 62.3824 7.13091V12.1418C62.3824 13.4191 63.4136 14.4546 64.6857 14.4546H69.6763C70.9484 14.4546 71.9796 15.49 71.9796 16.7673V53H62.3824V16.7673C62.3824 15.49 61.3511 14.4546 60.079 14.4546H45.4912C44.2191 14.4546 43.1878 15.49 43.1878 16.7673V53H33.5905Z" fill="black"/>
<path d="M4.79873 53L0 48.1819L4.79873 48.1818V53Z" fill="black"/>
<path d="M33.5905 53L28.7918 48.1819L33.5905 48.1818L33.5905 53Z" fill="black"/>
<path d="M62.3824 53L57.5836 48.1819L62.3823 48.1818L62.3824 53Z" fill="black"/>
<path d="M9.59727 11.9491C9.59727 10.6718 10.6285 9.63637 11.9006 9.63637L14.396 9.63666L14.396 12.1418C14.396 13.4191 13.3648 14.4546 12.0927 14.4546L9.59736 14.4548L9.59727 11.9491Z" fill="black"/>
<path d="M38.3891 11.9491C38.3891 10.6718 39.4203 9.63637 40.6924 9.63637L43.1879 9.63666L43.1878 12.1418C43.1878 13.4191 42.1566 14.4546 40.8845 14.4546L38.3892 14.4548L38.3891 11.9491Z" fill="black"/>
</svg>
