<svg width="17" height="16" viewBox="0 0 17 16" fill="none" xmlns="http://www.w3.org/2000/svg">
<path d="M14.0553 0.907825L1.97458 5.35916C0.625246 5.85416 0.65458 7.77549 2.0195 8.23016L6.95116 9.87282C6.97278 9.88019 6.99239 9.89246 7.00845 9.90869C7.02452 9.92491 7.0366 9.94464 7.04375 9.96632L8.68733 14.898C9.14108 16.262 11.0615 16.2913 11.5574 14.942L16.0087 2.86032C16.4579 1.64299 15.2727 0.458658 14.0553 0.907825ZM14.5302 2.19849C14.5563 2.18909 14.5846 2.18729 14.6117 2.19332C14.6388 2.19934 14.6636 2.21294 14.6833 2.23253C14.703 2.25211 14.7167 2.27689 14.7229 2.30397C14.729 2.33105 14.7274 2.35932 14.7181 2.38549L10.2677 14.4672C10.2568 14.4951 10.2376 14.519 10.2128 14.5357C10.1879 14.5524 10.1585 14.561 10.1286 14.5605C10.0986 14.56 10.0695 14.5504 10.0453 14.5329C10.021 14.5154 10.0026 14.4908 9.99266 14.4626L8.34816 9.53091C8.27334 9.30684 8.14743 9.10323 7.98038 8.93619C7.81334 8.76914 7.60974 8.64323 7.38566 8.56841L2.45491 6.92666C2.42636 6.9169 2.40151 6.89857 2.38375 6.87417C2.366 6.84977 2.3562 6.82048 2.3557 6.79031C2.3552 6.76014 2.36402 6.73054 2.38095 6.70557C2.39789 6.68059 2.42211 6.66144 2.45033 6.65074L14.5311 2.19941L14.5302 2.19849Z" fill="currentColor"/>
</svg>
