<svg width="18" height="20" viewBox="0 0 18 20" fill="none" xmlns="http://www.w3.org/2000/svg">
<path fill-rule="evenodd" clip-rule="evenodd" d="M8.18511 0.215833C8.69189 -0.0719446 9.30811 -0.0719439 9.81489 0.215833L17.1369 4.37365C17.6696 4.67614 18 5.25005 18 5.87291V14.1271C18 14.75 17.6696 15.3239 17.1369 15.6264L9.81489 19.7842C9.30811 20.0719 8.69189 20.0719 8.18511 19.7842L0.863073 15.6264C0.330376 15.3239 0 14.75 0 14.1271V5.87291C0 5.25005 0.330378 4.67614 0.863074 4.37365L8.18511 0.215833ZM9.07408 1.5788C9.02801 1.55264 8.97199 1.55264 8.92592 1.5788L1.60388 5.73662C1.55546 5.76412 1.52542 5.81629 1.52542 5.87291V14.1271C1.52542 14.1837 1.55546 14.2359 1.60388 14.2634L8.92592 18.4212C8.97199 18.4474 9.02801 18.4474 9.07408 18.4212L16.3961 14.2634C16.4445 14.2359 16.4746 14.1837 16.4746 14.1271V5.87291C16.4746 5.81629 16.4445 5.76412 16.3961 5.73662L9.07408 1.5788Z" fill="currentColor"/>
<path fill-rule="evenodd" clip-rule="evenodd" d="M4.16949 10C4.16949 7.27315 6.33218 5.06259 9 5.06259C11.6678 5.06259 13.8305 7.27315 13.8305 10C13.8305 12.7269 11.6678 14.9374 9 14.9374C6.33218 14.9374 4.16949 12.7269 4.16949 10ZM9 6.62177C7.17465 6.62177 5.69491 8.13426 5.69491 10C5.69491 11.8657 7.17465 13.3782 9 13.3782C10.8253 13.3782 12.3051 11.8657 12.3051 10C12.3051 8.13426 10.8253 6.62177 9 6.62177Z" fill="currentColor"/>
</svg>
