<svg width="34" height="25" viewBox="0 0 34 25" fill="none" xmlns="http://www.w3.org/2000/svg">
<path d="M2.76443 8.32665L1.71903 10.5139C1.58668 10.8102 1.55238 11.141 1.6211 11.4581C2.11628 14.2208 8.25743 18.7553 15.3368 21.5855C21.4848 24.0429 26.3182 24.4069 27.1589 22.6508L28.2041 20.4647C27.3645 22.2211 22.53 21.8569 16.3832 19.3997C9.30742 16.5702 3.16265 12.035 2.66747 9.27228C2.59813 8.9548 2.6321 8.62351 2.76443 8.32665Z" stroke="black" stroke-miterlimit="10"/>
<path d="M14.5876 9.39239C7.51184 6.56287 2.17122 6.50837 2.66738 9.27254C3.16354 12.0367 9.30371 16.5697 16.3831 19.3999C23.4625 22.2301 28.7985 22.2825 28.2973 19.5187C27.7961 16.7548 21.6658 12.2224 14.5876 9.39239Z" fill="white" stroke="black" stroke-miterlimit="10"/>
<path d="M30 0C30.5788 1.9164 32.0836 3.42124 34 4.00002C32.0836 4.57879 30.5788 6.0836 30 8C29.4212 6.0836 27.9164 4.57879 26 4.00002C27.9164 3.42124 29.4212 1.92926 30 0Z" fill="#231F20"/>
<path d="M19.5 9C19.8636 10.1983 20.8017 11.1364 22 11.5C20.8017 11.8636 19.8636 12.8017 19.5 14C19.1364 12.8017 18.1983 11.8636 17 11.5C18.1983 11.1405 19.1364 10.2025 19.5 9Z" fill="#231F20"/>
</svg>
