<svg width="25" height="25" viewBox="0 0 25 25" fill="none" xmlns="http://www.w3.org/2000/svg" class="sc-bCfvAP kVopku"><path d="M16.6929 19.6668C15.7268 19.9976 14.7045 20.1632 13.6306 20.1632C12.3927 20.1632 11.254 19.9782 10.2189 19.6085C9.18371 19.2393 8.2866 18.7123 7.52749 18.0273C6.77269 17.3437 6.17747 16.5208 5.75047 15.5589C5.32778 14.598 5.11643 13.5158 5.11643 12.3137C5.11643 11.1306 5.33211 10.0532 5.76774 9.08231C6.19905 8.11143 6.80719 7.28418 7.58355 6.59968C8.35992 5.91605 9.26998 5.38898 10.3138 5.01891C11.3618 4.64884 12.4919 4.46425 13.7125 4.46425C14.2128 4.46425 14.7175 4.50565 15.2264 4.58846C15.7354 4.67214 16.2228 4.78773 16.6929 4.93524C17.1673 5.08361 17.5986 5.2501 17.9998 5.4347C18.3966 5.62017 18.733 5.82331 19.0134 6.04501L15.8216 10.6497C15.5974 10.3995 15.3084 10.2081 14.9461 10.0739C14.5881 9.93977 14.2387 9.87248 13.9066 9.87248C13.596 9.87248 13.2898 9.92381 12.9922 10.0252C12.6946 10.1274 12.4315 10.2844 12.2029 10.497C11.97 10.7097 11.7802 10.9684 11.6336 11.2734C11.4826 11.5783 11.4093 11.935 11.4093 12.3418C11.4093 12.748 11.4826 13.1043 11.6336 13.4097C11.7802 13.7146 11.97 13.9639 12.2029 14.158C12.4315 14.3521 12.6946 14.5005 12.9922 14.6018C13.2898 14.7041 13.596 14.7545 13.9066 14.7545C14.2775 14.7545 14.6398 14.6851 14.9892 14.5466C15.3429 14.4077 15.6276 14.2184 15.8518 13.9777L19.0651 18.4526C18.457 18.9309 17.6677 19.3355 16.6929 19.6668ZM12.962 0.313721C6.33706 0.313721 0.962891 5.68616 0.962891 12.3137C0.962891 18.9413 6.33706 24.3137 12.962 24.3137C19.5913 24.3137 24.9655 18.9413 24.9655 12.3137C24.9655 5.68616 19.5913 0.313721 12.962 0.313721Z" fill="#FB009D"></path></svg>
